<svg width="191" height="45" viewBox="0 0 191 45" fill="none" xmlns="http://www.w3.org/2000/svg">
<path d="M0.0722195 0.586255C0.200619 0.586255 0.329018 0.573975 0.457417 0.573975C13.9393 0.573975 27.4213 0.573975 40.9032 0.573975C41.2417 0.573975 41.3117 0.659937 41.3117 1.00379C41.3117 15.1999 41.3117 29.3961 41.3117 43.5799C41.3117 43.9115 41.265 44.022 40.9149 44.022C28.0983 44.022 15.27 44.022 2.45344 44.022H2.05657C2.1733 43.887 2.24333 43.801 2.32504 43.7273C8.69832 37.0222 15.0716 30.3294 21.4332 23.612C21.6666 23.3664 21.76 23.4155 21.9701 23.6243C23.7094 25.4786 25.4719 27.3207 27.2228 29.1628C27.3162 29.261 27.3862 29.3715 27.4563 29.4698C27.5964 29.347 27.5497 29.2364 27.5497 29.1505C27.5497 24.5699 27.5497 19.9893 27.5497 15.4087C27.5497 15.1877 27.5497 15.0649 27.2695 15.0649C22.8339 15.0649 18.3983 15.0649 13.9627 15.0649C13.9277 15.0649 13.8926 15.0649 13.8576 15.0649C13.7993 15.0034 13.7292 14.9543 13.6709 14.8929C9.17689 10.1895 4.70627 5.48614 0.223964 0.782741C0.165601 0.721339 0.11891 0.659937 0.0605469 0.586255H0.0722195Z" fill="#2BB04C"/>
<path d="M0.0729542 0.586914C0.131318 0.648316 0.178008 0.721999 0.236372 0.783401C4.707 5.4868 9.18931 10.2025 13.6599 14.9059C13.7183 14.9673 13.7767 15.0164 13.8467 15.0778C13.9284 15.176 14.0101 15.2743 14.1035 15.3725C15.8777 17.2391 17.652 19.118 19.4379 20.9724C19.5897 21.132 19.6597 21.218 19.4613 21.4268C13.0296 28.1687 6.60965 34.9229 0.189681 41.6772C0.154663 41.714 0.107972 41.7631 0.0612815 41.8C-0.0320998 41.7017 0.0145908 41.5912 0.0145908 41.4929C0.0145908 27.9722 0.0145908 14.4515 0.0145908 0.930765C0.0145908 0.820242 -0.0437725 0.685157 0.0729542 0.599194V0.586914Z" fill="#F47922"/>
<path d="M184.527 14.6231C184.527 10.067 184.527 5.53557 184.527 1.00411C184.527 0.660255 184.585 0.562012 184.935 0.562012C186.523 0.586573 188.11 0.574292 189.698 0.562012C189.943 0.562012 190.001 0.635694 190.001 0.881302C190.001 9.12145 190.001 17.3493 190.001 25.5895C190.001 25.8474 189.919 25.9088 189.686 25.9088C188.332 25.9088 186.978 25.9088 185.624 25.9088C185.39 25.9088 185.25 25.8351 185.122 25.6263C182.32 21.1931 179.519 16.7599 176.718 12.3144C176.648 12.2038 176.578 12.0933 176.437 11.8968V12.3635C176.437 16.7476 176.437 21.1317 176.437 25.5158C176.437 25.8474 176.344 25.9088 176.052 25.9088C174.465 25.8965 172.877 25.8965 171.29 25.9088C171.045 25.9088 170.986 25.8474 170.986 25.5895C170.986 17.3493 170.986 9.12145 170.986 0.881302C170.986 0.623414 171.056 0.562012 171.29 0.562012C172.632 0.574292 173.975 0.574292 175.317 0.562012C175.55 0.562012 175.667 0.647975 175.784 0.844461C178.62 5.36365 181.468 9.89512 184.317 14.4143C184.363 14.488 184.387 14.5985 184.527 14.6353V14.6231Z" fill="white"/>
<path d="M99.6758 13.2231C99.6758 9.13373 99.6758 5.03208 99.6758 0.942704C99.6758 0.635694 99.7458 0.562012 100.038 0.562012C103.224 0.574292 106.411 0.537451 109.598 0.598853C111.559 0.635694 113.45 1.10235 115.095 2.33039C116.624 3.46019 117.488 5.04436 117.757 6.97238C117.99 8.5934 117.92 10.2021 117.337 11.7495C116.753 13.2845 115.714 14.3897 114.313 15.1266C114.057 15.2617 114.068 15.3599 114.173 15.5809C115.679 18.8967 117.185 22.2124 118.679 25.5404C118.854 25.921 118.854 25.921 118.457 25.921C116.578 25.921 114.71 25.921 112.831 25.921C112.551 25.921 112.434 25.8228 112.329 25.5649C111.092 22.5931 109.843 19.6335 108.617 16.6739C108.512 16.4283 108.395 16.33 108.138 16.33C107.38 16.3546 106.609 16.3546 105.851 16.33C105.524 16.33 105.477 16.4406 105.477 16.7476C105.477 19.6826 105.477 22.6176 105.489 25.5526C105.489 25.8596 105.407 25.9333 105.127 25.921C103.434 25.9088 101.742 25.9088 100.049 25.921C99.7692 25.921 99.6875 25.8596 99.6875 25.5526C99.6875 21.451 99.6875 17.337 99.6875 13.2354L99.6758 13.2231ZM105.465 8.43375C105.465 9.02321 105.465 9.60039 105.465 10.1898C105.465 10.5337 105.325 10.9758 105.524 11.1723C105.734 11.3933 106.154 11.246 106.493 11.2337C107.648 11.2337 108.804 11.3196 109.959 11.0986C110.917 10.9144 111.699 10.4969 111.967 9.41618C112.119 8.78988 112.119 8.16358 111.944 7.53728C111.629 6.38292 110.776 5.94083 109.761 5.75662C108.407 5.51101 107.041 5.6461 105.676 5.60926C105.454 5.60926 105.477 5.74434 105.477 5.89171C105.477 6.72677 105.477 7.57412 105.477 8.40919L105.465 8.43375Z" fill="white"/>
<path d="M55.0527 13.2232C55.0527 9.13381 55.0527 5.03215 55.0527 0.942778C55.0527 0.635767 55.1228 0.562085 55.4146 0.562085C57.1188 0.574365 58.823 0.574365 60.5272 0.562085C60.8307 0.562085 60.8774 0.648048 60.8774 0.942778C60.8774 3.91463 60.8774 6.88649 60.8657 9.85835C60.8657 10.1531 60.9241 10.2513 61.2276 10.239C63.4454 10.2268 65.6515 10.2268 67.8693 10.239C68.1728 10.239 68.2779 10.1776 68.2779 9.82151C68.2662 6.86193 68.2779 3.90235 68.2662 0.942778C68.2662 0.623487 68.3479 0.549805 68.6397 0.549805C70.3323 0.562085 72.0248 0.562085 73.7173 0.549805C73.9858 0.549805 74.0909 0.598926 74.0909 0.918217C74.0909 9.12152 74.0909 17.3126 74.0909 25.5159C74.0909 25.8106 74.0442 25.9088 73.7407 25.8966C72.0248 25.8843 70.3089 25.8843 68.593 25.8966C68.3246 25.8966 68.2662 25.8106 68.2662 25.5527C68.2662 22.2738 68.2662 18.995 68.2779 15.7161C68.2779 15.4091 68.2195 15.3108 67.9043 15.3108C65.6865 15.3231 63.4804 15.3231 61.2626 15.3108C60.9708 15.3108 60.8774 15.3722 60.8774 15.7038C60.8891 18.9704 60.8774 22.237 60.8891 25.5036C60.8891 25.8352 60.8074 25.9088 60.5039 25.8966C58.8113 25.8843 57.1188 25.8843 55.4263 25.8966C55.1461 25.8966 55.0644 25.8352 55.0644 25.5281C55.0644 21.4265 55.0644 17.3126 55.0644 13.2109L55.0527 13.2232Z" fill="white"/>
<path d="M77.3691 13.0019C77.3924 11.9335 77.3107 10.6563 77.4508 9.37918C77.7193 6.83714 78.4313 4.50386 80.2289 2.67408C81.4662 1.42148 82.972 0.709217 84.6412 0.402207C86.7189 0.0215149 88.7733 0.0951973 90.7576 0.881143C93.489 1.96182 95.0882 4.12317 95.8586 7.02134C96.2088 8.34763 96.3488 9.72303 96.3488 11.0984C96.3488 12.7072 96.3722 14.3159 96.3372 15.9246C96.2905 17.8527 95.952 19.7193 95.0999 21.4508C94.0493 23.5876 92.4385 25.0244 90.2557 25.749C88.1079 26.4489 85.9252 26.4735 83.754 25.8472C80.8125 24.9876 78.9332 22.949 77.9877 19.928C77.5442 18.5281 77.3691 17.0913 77.3574 15.6176C77.3574 14.8194 77.3574 14.0089 77.3574 13.0019H77.3691ZM90.5592 13.4072C90.5592 12.4861 90.5709 11.7125 90.5592 10.9265C90.5359 10.0178 90.4658 9.10901 90.244 8.22482C89.7888 6.4196 88.855 5.47401 87.2558 5.30209C85.7034 5.13016 84.4311 5.78102 83.7774 7.40203C83.4506 8.21254 83.2871 9.07217 83.2288 9.94408C83.112 11.8844 83.1587 13.837 83.1821 15.7773C83.1821 16.5264 83.2755 17.2755 83.4389 18.0123C83.8241 19.8666 84.7696 20.8982 86.3337 21.1561C87.8862 21.4263 89.2635 20.6771 89.9055 19.2158C90.1973 18.5526 90.3608 17.8404 90.4541 17.1158C90.6176 15.8264 90.5475 14.5369 90.5709 13.3949L90.5592 13.4072Z" fill="white"/>
<path d="M167.671 13.4196C167.648 14.7458 167.729 16.2195 167.531 17.6809C167.169 20.2229 166.317 22.4948 164.379 24.1772C162.943 25.4298 161.251 26.0438 159.418 26.2157C157.574 26.3877 155.765 26.2403 154.037 25.4789C151.341 24.2877 149.823 22.065 149.111 19.1668C148.808 17.951 148.679 16.6984 148.679 15.4458C148.679 13.8002 148.656 12.1547 148.691 10.5091C148.738 8.53195 149.1 6.62849 149.987 4.86011C151.014 2.82157 152.578 1.44616 154.656 0.758461C156.862 0.021637 159.103 -0.0152043 161.321 0.647937C164.438 1.56897 166.305 3.79172 167.169 7.00918C167.508 8.27407 167.659 9.57579 167.671 10.9021C167.671 11.688 167.671 12.4862 167.671 13.4318V13.4196ZM161.881 13.2353C161.881 12.5845 161.881 11.9459 161.881 11.295C161.858 10.0916 161.788 8.88809 161.403 7.73373C160.877 6.16184 159.792 5.28993 158.286 5.26537C156.675 5.22853 155.59 6.00219 155.006 7.59864C154.609 8.65476 154.504 9.77227 154.492 10.8898C154.469 12.4617 154.481 14.0336 154.492 15.6055C154.492 16.5019 154.586 17.3984 154.819 18.2703C155.228 19.7931 155.998 20.9352 157.609 21.1562C159.173 21.3773 160.527 20.8124 161.228 19.1913C161.508 18.5405 161.66 17.8651 161.753 17.1651C161.928 15.8634 161.881 14.5371 161.881 13.2353Z" fill="white"/>
<path d="M137.707 20.837H139.388C141.734 20.837 144.092 20.837 146.439 20.837C146.707 20.837 146.789 20.8984 146.777 21.1931C146.765 22.6545 146.765 24.1158 146.777 25.5772C146.777 25.8474 146.719 25.921 146.45 25.921C141.209 25.921 135.956 25.921 130.715 25.921C130.435 25.921 130.377 25.8228 130.377 25.5526C130.389 24.5088 130.389 23.4527 130.377 22.4088C130.377 22.0896 130.447 21.8194 130.599 21.5492C133.424 16.3669 136.248 11.1846 139.061 5.98995C139.12 5.8917 139.166 5.78118 139.237 5.63382C139.085 5.63382 138.968 5.63382 138.863 5.63382C136.155 5.63382 133.447 5.63382 130.739 5.63382C130.47 5.63382 130.389 5.57241 130.389 5.27769C130.4 3.81632 130.4 2.35495 130.389 0.893582C130.389 0.611133 130.47 0.562012 130.715 0.562012C135.851 0.562012 140.976 0.562012 146.112 0.562012C146.357 0.562012 146.45 0.611133 146.439 0.893582C146.415 2.0111 146.439 3.1409 146.439 4.25841C146.439 4.44262 146.404 4.61454 146.31 4.77419C143.532 9.9688 140.742 15.1634 137.964 20.358C137.894 20.4931 137.824 20.6282 137.719 20.8247L137.707 20.837Z" fill="white"/>
<path d="M127.27 13.2722C127.27 17.3492 127.27 21.4263 127.27 25.5157C127.27 25.835 127.2 25.921 126.896 25.921C125.181 25.9087 123.465 25.9087 121.76 25.921C121.492 25.921 121.445 25.8473 121.445 25.5771C121.445 17.3615 121.445 9.13366 121.445 0.91807C121.445 0.660182 121.492 0.574219 121.76 0.574219C123.476 0.586499 125.192 0.586499 126.896 0.574219C127.188 0.574219 127.282 0.635621 127.282 0.967191C127.27 5.06884 127.282 9.1705 127.282 13.2844L127.27 13.2722Z" fill="white"/>
<path d="M62.1369 37.8334C62.1369 39.8474 62.1369 41.7509 62.1369 43.6421C62.1369 43.9491 62.0551 44.0227 61.775 44.0105C61.1563 43.9859 60.5494 43.9982 59.9307 44.0105C59.744 44.0105 59.6973 43.9613 59.6973 43.7649C59.6973 40.1667 59.6973 36.5808 59.6973 32.9827C59.6973 32.7862 59.7556 32.7371 59.9307 32.7371C60.4326 32.7493 60.9229 32.7493 61.4248 32.7371C61.6583 32.7371 61.7983 32.8107 61.9267 33.0195C63.1524 34.9967 64.3897 36.9615 65.6503 38.9509C65.7437 38.8159 65.7087 38.6931 65.7087 38.5702C65.7087 36.7405 65.7087 34.9107 65.7087 33.0932C65.7087 32.823 65.767 32.7371 66.0355 32.7493C66.6542 32.7739 67.2611 32.7616 67.8798 32.7493C68.0782 32.7493 68.1599 32.7862 68.1599 33.0195C68.1599 36.5931 68.1599 40.1544 68.1599 43.728C68.1599 43.9491 68.1249 44.0227 67.8915 44.0105C67.3662 43.9859 66.8526 43.9982 66.3273 44.0105C66.1289 44.0105 66.0238 43.9491 65.9071 43.7649C64.7399 41.8982 63.5492 40.0316 62.3703 38.1773C62.3119 38.0913 62.2536 38.0054 62.1369 37.8211V37.8334Z" fill="white"/>
<path d="M171.31 44.01C170.4 44.01 169.536 44.01 168.672 44.01C168.462 44.01 168.427 43.8627 168.369 43.7276C167.855 42.4995 167.33 41.2715 166.828 40.0312C166.746 39.8224 166.641 39.7242 166.419 39.7487C166.174 39.7733 165.929 39.7733 165.696 39.7487C165.45 39.7242 165.38 39.8224 165.392 40.068C165.404 41.2592 165.392 42.4504 165.404 43.6539C165.404 43.9363 165.345 44.0223 165.065 44.01C164.423 43.9855 163.77 43.9977 163.116 44.01C162.882 44.01 162.801 43.9732 162.801 43.703C162.801 40.1417 162.801 36.5927 162.801 33.0313C162.801 32.8594 162.801 32.7366 163.034 32.7366C164.61 32.7857 166.186 32.6384 167.75 32.8226C169.081 32.9822 170.213 33.5348 170.668 34.9716C171.053 36.1874 171.007 37.3909 170.225 38.4593C170.014 38.754 169.734 38.9873 169.419 39.147C169.197 39.2575 169.221 39.3557 169.302 39.5522C169.956 40.9768 170.598 42.4013 171.24 43.8258C171.263 43.8627 171.275 43.9118 171.31 44.01ZM165.392 36.2611C165.392 36.6049 165.392 36.9365 165.392 37.2804C165.392 37.4154 165.392 37.5137 165.567 37.5137C166.151 37.4891 166.746 37.5505 167.33 37.44C167.995 37.3172 168.287 36.9979 168.299 36.3348C168.299 35.6348 168.007 35.2295 167.376 35.0944C166.781 34.9716 166.174 35.033 165.579 35.0208C165.415 35.0208 165.392 35.1067 165.392 35.2418C165.392 35.5857 165.392 35.9172 165.392 36.2611Z" fill="white"/>
<path d="M116.73 44.0099C115.82 44.0099 114.944 44.0099 114.08 44.0099C113.894 44.0099 113.847 43.8994 113.8 43.7643C113.287 42.5363 112.761 41.3083 112.259 40.0679C112.166 39.8346 112.049 39.7241 111.804 39.7486C111.489 39.7732 111.057 39.6504 110.87 39.81C110.672 39.9943 110.812 40.4486 110.812 40.7925C110.812 41.7626 110.812 42.7451 110.812 43.7152C110.812 43.9608 110.742 44.0222 110.52 44.0099C109.831 43.9977 109.154 43.9977 108.466 44.0099C108.267 44.0099 108.209 43.9608 108.209 43.7521C108.209 40.1662 108.209 36.5926 108.209 33.0067C108.209 32.8471 108.209 32.7365 108.419 32.7488C109.995 32.7979 111.571 32.6506 113.135 32.8348C114.454 32.9944 115.574 33.547 116.065 34.9716C116.543 36.3593 116.31 38.4101 114.734 39.2083C114.512 39.3188 114.664 39.4539 114.711 39.5644C115.294 40.8662 115.89 42.1679 116.485 43.4696C116.555 43.6293 116.625 43.8012 116.718 44.0222L116.73 44.0099ZM110.8 36.261C110.8 36.6049 110.8 36.9487 110.8 37.2803C110.8 37.4154 110.8 37.5136 110.975 37.5013C111.547 37.4768 112.131 37.5382 112.703 37.4399C113.392 37.3171 113.695 36.9856 113.707 36.3347C113.707 35.6101 113.403 35.2295 112.703 35.0821C112.131 34.9593 111.547 35.0453 110.975 35.0084C110.8 35.0084 110.789 35.0944 110.8 35.2295C110.8 35.5733 110.8 35.9172 110.8 36.2487V36.261Z" fill="white"/>
<path d="M70.1309 38.3611C70.1309 36.5927 70.1309 34.8243 70.1309 33.0682C70.1309 32.8226 70.1892 32.7367 70.4343 32.7489C71.7767 32.7612 73.1191 32.7244 74.4614 32.7735C76.0722 32.8349 77.3446 33.498 77.9749 35.1805C78.185 35.7331 78.29 36.3225 78.3134 36.9243C78.3601 38.1278 78.4418 39.3435 78.2317 40.5347C77.8348 42.8434 76.4925 43.9978 74.263 44.0223C72.9907 44.0223 71.7183 44.0223 70.446 44.0223C70.2009 44.0223 70.1425 43.9609 70.1425 43.7031C70.1425 41.9224 70.1425 40.1417 70.1425 38.3734L70.1309 38.3611ZM72.7105 38.3365C72.7105 39.3804 72.7105 40.4242 72.7105 41.4803C72.7105 41.6768 72.7572 41.7505 72.9556 41.7505C73.3292 41.7382 73.691 41.7505 74.0645 41.7505C74.9633 41.7505 75.4653 41.3821 75.6287 40.4365C75.8621 39.0979 75.8505 37.7471 75.6404 36.4085C75.4769 35.3892 74.9867 35.0208 73.9945 35.0208C73.656 35.0208 73.3175 35.0331 72.9907 35.0208C72.7572 35.0085 72.6988 35.0822 72.7105 35.3155C72.7222 36.3225 72.7105 37.3418 72.7105 38.3488V38.3365Z" fill="white"/>
<path d="M176.123 39.7119C175.831 40.1294 175.574 40.5101 175.306 40.8785C175.201 41.0136 175.189 41.161 175.189 41.3206C175.189 42.1065 175.189 42.9048 175.189 43.6907C175.189 43.9118 175.166 44.01 174.921 44.01C174.244 43.9854 173.555 43.9977 172.866 44.01C172.656 44.01 172.598 43.9486 172.598 43.7276C172.598 40.154 172.598 36.5926 172.598 33.0191C172.598 32.7734 172.679 32.7366 172.878 32.7489C173.566 32.7489 174.244 32.7612 174.932 32.7489C175.154 32.7489 175.201 32.8103 175.201 33.0313C175.201 34.1611 175.201 35.3032 175.201 36.433V36.7891C175.341 36.7891 175.364 36.6663 175.411 36.6049C176.205 35.4137 176.998 34.2103 177.78 33.0068C177.909 32.8103 178.037 32.7366 178.259 32.7489C179.134 32.7612 180.021 32.7489 180.967 32.7489C180.827 32.9454 180.722 33.105 180.617 33.2647C179.741 34.5295 178.854 35.8067 177.967 37.0593C177.839 37.2435 177.839 37.3663 177.955 37.5628C179.099 39.6013 180.232 41.6522 181.364 43.6907C181.411 43.7767 181.446 43.8626 181.516 43.9977C180.769 43.9977 180.056 43.9363 179.344 44.01C178.644 44.0837 178.271 43.8258 177.967 43.1627C177.477 42.1065 176.893 41.0996 176.345 40.0803C176.286 39.9698 176.216 39.8592 176.123 39.6996V39.7119Z" fill="white"/>
<path d="M88.4946 36.6418C88.4946 37.8208 88.5413 39.012 88.4946 40.1909C88.3896 42.561 86.8604 44.0838 84.596 44.1697C83.5571 44.2066 82.5649 44.0469 81.6895 43.3961C80.6973 42.647 80.242 41.5663 80.1487 40.3382C80.0086 38.4593 80.1136 36.5682 80.0903 34.677C80.0903 34.1366 80.102 33.6086 80.0903 33.0683C80.0903 32.7981 80.172 32.749 80.4055 32.749C81.0708 32.7612 81.7245 32.7612 82.3898 32.749C82.6349 32.749 82.6933 32.8104 82.6933 33.0683C82.6933 35.2296 82.6933 37.3787 82.6933 39.54C82.6933 40.0558 82.74 40.5593 82.9384 41.0382C83.2069 41.6768 83.6972 41.9101 84.3392 41.9101C84.9695 41.9101 85.4597 41.6768 85.7282 41.0382C85.9616 40.4856 85.9733 39.8962 85.9733 39.319C85.9733 37.2436 85.9733 35.1805 85.9733 33.1051C85.9733 32.8104 86.055 32.749 86.3235 32.749C86.9538 32.7735 87.5725 32.7735 88.2028 32.749C88.5063 32.7367 88.553 32.8472 88.553 33.1419C88.5413 34.3086 88.553 35.4752 88.553 36.6541H88.5296L88.4946 36.6418Z" fill="white"/>
<path d="M161.9 44.0097C161.025 44.0097 160.184 44.0097 159.355 44.0097C159.18 44.0097 159.122 43.9483 159.075 43.7764C158.947 43.2975 158.784 42.8308 158.655 42.3519C158.608 42.1554 158.527 42.0817 158.328 42.0817C157.406 42.094 156.472 42.094 155.55 42.0817C155.328 42.0817 155.258 42.1677 155.2 42.3764C155.083 42.8431 154.932 43.2975 154.803 43.7641C154.756 43.9483 154.675 44.0097 154.488 43.9974C153.753 43.9974 153.006 43.9852 152.27 43.9974C152.037 43.9974 151.978 43.9729 152.072 43.7027C152.819 41.48 153.542 39.2572 154.278 37.0345C154.71 35.7204 155.153 34.4064 155.574 33.0802C155.667 32.7977 155.784 32.7117 156.064 32.724C156.671 32.7486 157.289 32.7486 157.908 32.724C158.142 32.724 158.223 32.81 158.293 33.0188C159.332 36.1871 160.383 39.3432 161.422 42.5115C161.585 42.9904 161.737 43.4694 161.912 43.9974L161.9 44.0097ZM156.939 36.5432C156.612 37.6239 156.321 38.6186 156.017 39.6133C155.97 39.7607 155.982 39.8344 156.157 39.8344C156.671 39.8344 157.173 39.8344 157.686 39.8344C157.838 39.8344 157.896 39.7853 157.85 39.6256C157.558 38.6309 157.266 37.6362 156.939 36.5432Z" fill="white"/>
<path d="M121.842 44.0105C122.204 42.9298 122.554 41.8737 122.892 40.8176C123.756 38.2141 124.608 35.623 125.46 33.0195C125.53 32.823 125.6 32.7371 125.81 32.7371C126.464 32.7493 127.106 32.7493 127.76 32.7371C127.958 32.7371 128.063 32.7862 128.133 33.0072C129.301 36.5685 130.48 40.1299 131.658 43.6912C131.74 43.9491 131.729 44.0228 131.448 44.0105C130.725 43.9982 129.989 44.0105 129.266 44.0105C129.079 44.0105 128.985 43.9736 128.927 43.7526C128.81 43.2736 128.647 42.807 128.519 42.3281C128.472 42.1561 128.39 42.0824 128.203 42.0824C127.27 42.0824 126.324 42.0947 125.39 42.0824C125.18 42.0824 125.11 42.1807 125.063 42.3526C124.935 42.8315 124.783 43.2982 124.655 43.7771C124.62 43.8999 124.597 43.9982 124.433 43.9982C123.581 43.9982 122.729 43.9982 121.83 43.9982L121.842 44.0105ZM127.771 39.8351L126.838 36.6545C126.476 37.6615 126.172 38.6685 125.869 39.6878C125.822 39.8597 125.916 39.8351 126.009 39.8351C126.581 39.8351 127.164 39.8351 127.771 39.8351Z" fill="white"/>
<path d="M144.521 38.361C144.521 36.5927 144.521 34.8243 144.521 33.0682C144.521 32.8594 144.521 32.7366 144.79 32.7489C146.167 32.7734 147.545 32.7489 148.922 32.7734C149.622 32.7857 150.299 32.9208 150.93 33.2647C152.109 33.891 152.681 35.0944 152.599 36.6663C152.482 39.0733 150.906 40.1171 148.875 40.2031C148.397 40.2277 147.93 40.2154 147.451 40.2031C147.194 40.2031 147.101 40.2522 147.101 40.5592C147.124 41.6031 147.101 42.6592 147.113 43.703C147.113 43.9609 147.043 44.0346 146.809 44.0223C146.167 44.01 145.537 43.9977 144.895 44.0223C144.603 44.0223 144.51 43.9732 144.51 43.6293C144.533 41.8732 144.51 40.1171 144.51 38.3733L144.521 38.361ZM147.113 36.4698C147.113 36.8874 147.113 37.2926 147.113 37.7102C147.113 37.8207 147.101 37.9435 147.265 37.9312C147.86 37.9067 148.467 37.9926 149.062 37.8453C149.692 37.6733 150.008 37.2312 150.031 36.519C150.054 35.7821 149.774 35.3769 149.132 35.1558C148.525 34.9471 147.895 35.033 147.276 35.0085C147.113 35.0085 147.136 35.119 147.136 35.2295C147.136 35.6471 147.136 36.0523 147.136 36.4698H147.113Z" fill="white"/>
<path d="M96.0954 35.8925C95.6168 34.9837 94.8231 34.8118 93.9476 34.8732C93.4457 34.9101 93.1072 35.1802 93.0138 35.5978C92.9087 36.0399 93.0722 36.4083 93.504 36.703C93.9359 36.9855 94.4262 37.1328 94.9164 37.2925C95.4184 37.4521 95.9086 37.624 96.3755 37.8696C97.7646 38.5819 98.2431 39.6871 98.0564 41.3204C97.8813 42.8064 97.0525 43.7151 95.6635 44.0221C94.3445 44.3168 93.0371 44.2432 91.7765 43.7274C91.1462 43.4695 90.6442 43.0397 90.2007 42.5116C90.084 42.3765 90.0956 42.3151 90.2357 42.2046C90.761 41.8239 91.2862 41.4432 91.7998 41.0503C91.9516 40.9397 92.0333 40.952 92.1617 41.0994C92.8971 41.9222 93.8192 42.045 94.8114 41.8239C95.1732 41.738 95.4417 41.4924 95.5001 41.0871C95.5584 40.6818 95.395 40.3748 95.0799 40.1538C94.6363 39.8345 94.1227 39.6749 93.6208 39.4907C92.9904 39.2696 92.3601 39.024 91.7882 38.631C90.5742 37.8082 90.224 36.5925 90.4458 35.1802C90.6559 33.8662 91.4613 33.1048 92.6519 32.7978C94.041 32.4417 95.4067 32.5154 96.7024 33.2031C97.1693 33.4487 97.5661 33.8171 97.8813 34.2592C97.9747 34.382 98.0097 34.468 97.8579 34.5785C97.2743 35.0083 96.6907 35.4504 96.0954 35.9048V35.8925Z" fill="white"/>
<path d="M186.135 44.1696C184.956 44.1573 183.812 43.9731 182.82 43.2117C182.551 43.0029 182.318 42.745 182.084 42.4871C181.979 42.3766 181.967 42.3152 182.108 42.217C182.656 41.824 183.193 41.431 183.73 41.0258C183.905 40.8907 183.964 41.0012 184.057 41.1117C184.792 41.91 185.691 42.0573 186.683 41.8363C187.057 41.7503 187.337 41.517 187.395 41.0872C187.454 40.6696 187.279 40.3626 186.94 40.1416C186.438 39.81 185.866 39.6258 185.318 39.4293C184.769 39.2328 184.232 39.0118 183.742 38.6925C182.528 37.8943 182.154 36.7154 182.341 35.3031C182.516 33.9768 183.298 33.1663 184.5 32.847C186.041 32.4418 187.547 32.5277 188.936 33.4365C189.275 33.6575 189.543 33.9523 189.788 34.2838C189.882 34.4189 189.893 34.4926 189.753 34.6031C189.216 34.9838 188.691 35.3891 188.166 35.7943C188.049 35.8926 187.967 35.9171 187.874 35.7452C187.395 34.9224 186.391 34.7751 185.551 34.9715C185.212 35.0575 184.967 35.2663 184.897 35.6347C184.827 36.0277 184.932 36.3592 185.236 36.6048C185.633 36.9364 186.111 37.0838 186.59 37.2434C187.162 37.4276 187.734 37.6118 188.271 37.8943C189.601 38.6065 190.15 39.7118 189.952 41.3573C189.788 42.745 188.924 43.7152 187.57 44.0468C187.092 44.1696 186.613 44.2187 186.123 44.1941L186.135 44.1696Z" fill="white"/>
<path d="M101.626 39.4787C101.626 38.1033 101.626 36.7279 101.626 35.3525C101.626 35.0946 101.579 34.9963 101.311 35.0086C100.575 35.0332 99.8281 35.0086 99.0927 35.0209C98.906 35.0209 98.8359 34.9718 98.8359 34.763C98.8476 34.1613 98.8359 33.5718 98.8359 32.9701C98.8359 32.7981 98.8826 32.749 99.046 32.749C101.614 32.749 104.182 32.749 106.762 32.749C106.96 32.749 106.983 32.8227 106.983 33.0069C106.983 33.5964 106.972 34.1735 106.983 34.763C106.983 35.0086 106.902 35.0332 106.703 35.0332C105.98 35.0332 105.244 35.0332 104.521 35.0332C104.264 35.0332 104.194 35.0946 104.194 35.377C104.194 38.1401 104.194 40.9032 104.205 43.6663C104.205 43.9733 104.135 44.047 103.844 44.047C103.213 44.0224 102.571 44.0224 101.929 44.047C101.672 44.047 101.602 43.9979 101.602 43.7154C101.614 42.3155 101.602 40.9155 101.602 39.5155L101.626 39.4787Z" fill="white"/>
<path d="M132.686 38.3612C132.686 36.5928 132.686 34.8244 132.686 33.0683C132.686 32.8104 132.756 32.749 132.989 32.749C133.631 32.7613 134.261 32.7736 134.903 32.749C135.183 32.749 135.265 32.8104 135.265 33.1174C135.254 35.8682 135.265 38.6191 135.254 41.3699C135.254 41.6769 135.324 41.7506 135.615 41.7506C136.771 41.726 137.927 41.7506 139.094 41.7383C139.421 41.7383 139.467 41.8365 139.456 42.1435C139.432 42.6593 139.432 43.1628 139.456 43.6786C139.456 43.9365 139.409 44.0224 139.141 44.0224C137.086 44.0101 135.043 44.0101 132.989 44.0224C132.744 44.0224 132.686 43.9487 132.686 43.7031C132.686 41.9225 132.686 40.1418 132.686 38.3734V38.3612Z" fill="white"/>
<path d="M57.5484 38.3977C57.5484 40.1538 57.5484 41.9099 57.5484 43.666C57.5484 43.9607 57.4667 44.0344 57.1982 44.0221C56.5328 43.9976 55.8792 44.0099 55.2138 44.0221C55.0154 44.0221 54.957 43.973 54.957 43.7643C54.957 40.1784 54.957 36.6048 54.957 33.0189C54.957 32.8101 55.0154 32.7487 55.2138 32.761C55.8908 32.761 56.5562 32.7856 57.2332 32.761C57.5133 32.761 57.5484 32.8715 57.5484 33.1171C57.5484 34.8855 57.5484 36.6539 57.5484 38.4223V38.3977Z" fill="white"/>
<path d="M118.189 38.3364C118.189 36.5803 118.189 34.8242 118.189 33.0681C118.189 32.7857 118.259 32.7243 118.516 32.7366C119.193 32.7611 119.859 32.7488 120.536 32.7366C120.734 32.7366 120.792 32.7857 120.792 32.9945C120.792 36.5803 120.792 40.1539 120.792 43.7398C120.792 43.9486 120.734 44.01 120.536 43.9977C119.859 43.9977 119.193 43.9854 118.516 43.9977C118.259 43.9977 118.189 43.9363 118.189 43.6661C118.201 41.8855 118.189 40.1048 118.189 38.3241V38.3364Z" fill="white"/>
</svg>
